<?xml version="1.0" encoding="utf-8"?>
<!-- Generator: Adobe Illustrator 19.2.1, SVG Export Plug-In . SVG Version: 6.00 Build 0)  -->
<svg version="1.1" xmlns="http://www.w3.org/2000/svg" xmlns:xlink="http://www.w3.org/1999/xlink" x="0px" y="0px"
	 viewBox="0 0 1280 720" style="enable-background:new 0 0 1280 720;" xml:space="preserve">
<style type="text/css">
	.st0{display:none;}
	.st1{display:inline;}
	.st2{fill:#FFFFFF;stroke:#000000;stroke-miterlimit:10;}
	.st3{fill:#FFFFFF;}
</style>
<g id="Layer_1" class="st0">
	<rect class="st1" width="1280" height="720"/>
	<g id="M_triangulo_copy" class="st1">
		<path class="st2" d="M571.4,391.6l-30.6-25.1c0,0,0,82.6,0,106.9c0,2.9,4.6,6.7,4.6,6.7v-61.8l25.9-20.5l25.4,19.6v62.9
			c0,0,6.3-3.3,6.3-6.9c0-25.3,0-106.9,0-106.9L571.4,391.6z M546,410.7V379l21,15.9L546,410.7z M596.8,411.3l-20.5-16.7l20.5-17
			V411.3z"/>
		<path class="st2" d="M704.6,391.6L674,366.4c0,0,0,82.6,0,106.9c0,2.9,4.6,6.7,4.6,6.7v-61.8l25.9-20.5l25.4,19.6v62.9
			c0,0,6.3-3.3,6.3-6.9c0-25.3,0-106.9,0-106.9L704.6,391.6z M679.2,410.7V379l21,15.9L679.2,410.7z M730,411.3l-20.5-16.7l20.5-17
			V411.3z"/>
		<g>
			<path class="st2" d="M630.8,319c0.9-12.1-1.3-28.9-6.3-35.2c-16.7-21-8.5-35.3,2.9-50.2c2.4-3.1,2.9-19.9-10.1-21.6
				c-62.6-8.6-112.4-67.5-98.3-144.5C500.4,125,527,168.2,527,168.2c-12.1-13-26.2-36.6-30-60.8c-1.7,40.1,23.9,69.2,34.9,82.8
				c-13.8-10.3-22-16.6-38.3-50.2c5.2,25.7,25.1,51.6,37.2,62.6c-8.4-4.3-13.3-6.9-36-35.2c12.4,28,38.9,46.7,47.3,53.1
				c-7.8-1.4-22.5-11-37.5-23.1c14.1,18.5,35.2,27.4,47.3,33.7c-9.1,2-23.9-2.8-36.9-8.1c15.7,12.3,37.2,16.4,48.4,17.6
				c-12.9,3.1-32.8-1.3-44.7-4.3c14.1,8.1,36.9,11.5,54.2,10.4c-8.4,9.2-33,6.5-48.2,4c20.2,10,47.2,8.2,54.2,6.3
				c-6.9,6.3-26.7,11.1-45.6,12.4c20.5,6.1,43-0.2,46.4-1.7c-4.2,7.2-25.8,15.3-37.8,16.7c21,2.9,38.3-5.8,44.7-7.2
				c-2.8,8.1-22.1,15.9-34.3,18.2c16.4,1.8,34.9-5.1,39.2-7.5c-1.7,5.8-15.6,14.3-23.6,17.9c7.8-0.5,24.8-7.4,27.1-9.2
				c-0.2,3.2-5.4,9.5-13.8,17.9c6.1-1.4,17.5-9.7,20.8-12.7c0.6,4.6-0.6,8.8-6.9,15c5.1-1.2,11.1-7.1,13.7-9.1
				c1,1.6,1.6,6.3-0.5,9.7c2.5-1.3,4.6-3.9,5.8-5.2c3.2,6.3,8.9,40.9,10.4,54.8c1.4,13.5,2.9,258.3,7.5,310.2
				C632.5,645.4,630.3,326.6,630.8,319z"/>
			<path class="st2" d="M785.3,167.4c-23.3,28.3-28.3,30.9-36.9,35.2c12.4-11,32.8-36.9,38.1-62.6c-16.8,33.6-25.1,39.9-39.3,50.2
				c11.2-13.6,37.5-42.7,35.7-82.8c-3.9,24.2-18.3,47.9-30.7,60.8c0,0,27.2-43.2,8.2-100.6c14.5,77-36.6,135.8-100.6,144.5
				c-13.3,1.7-12.7,18.5-10.3,21.6c11.6,14.8,20.1,29.1,2.9,50.2c-5.1,6.3-7.4,23.1-6.5,35.2c0.6,7.6-1.8,326.4-1.2,358.1
				c4.7-51.9,6.2-296.7,7.7-310.2c1.5-13.8,7.4-48.4,10.6-54.8c1.2,1.3,3.4,3.9,5.9,5.2c-2.1-3.3-1.5-8.1-0.5-9.7
				c2.7,2,8.9,8,14,9.1c-6.5-6.2-7.7-10.4-7.1-15c3.4,3.1,15.1,11.2,21.3,12.7c-8.6-8.4-14-14.7-14.2-17.9
				c2.4,1.9,19.8,8.8,27.7,9.2c-8.2-3.6-22.4-12.1-24.2-17.9c4.4,2.5,23.4,9.3,40.1,7.5c-12.6-2.3-32.3-10.1-35.1-18.2
				c6.5,1.4,24.2,10.1,45.7,7.2c-12.2-1.4-34.4-9.5-38.6-16.7c3.5,1.6,26.6,7.8,47.5,1.7c-19.3-1.3-39.6-6.1-46.7-12.4
				c7.2,1.9,34.8,3.6,55.5-6.3c-15.5,2.5-40.7,5.2-49.3-4c17.7,1.2,41-2.3,55.5-10.4c-12.2,3.1-32.6,7.4-45.7,4.3
				c11.5-1.2,33.5-5.4,49.6-17.6c-13.3,5.4-28.5,10.1-37.8,8.1c12.4-6.3,34-15.3,48.4-33.7c-15.3,12.1-30.4,21.6-38.3,23.1
				C745.5,214.1,772.6,195.3,785.3,167.4z"/>
		</g>
	</g>
</g>
<g id="Layer_1_copy" class="st0">
	<g id="M_triangulo_copy_1_" class="st1">
		<path class="st3" d="M571.4,391.6l-30.6-25.1c0,0,0,82.6,0,106.9c0,2.9,4.6,6.7,4.6,6.7v-61.8l25.9-20.5l25.4,19.6v62.9
			c0,0,6.3-3.3,6.3-6.9c0-25.3,0-106.9,0-106.9L571.4,391.6z M546,410.7V379l21,15.9L546,410.7z M596.8,411.3l-20.5-16.7l20.5-17
			V411.3z"/>
		<path class="st3" d="M704.6,391.6L674,366.4c0,0,0,82.6,0,106.9c0,2.9,4.6,6.7,4.6,6.7v-61.8l25.9-20.5l25.4,19.6v62.9
			c0,0,6.3-3.3,6.3-6.9c0-25.3,0-106.9,0-106.9L704.6,391.6z M679.2,410.7V379l21,15.9L679.2,410.7z M730,411.3l-20.5-16.7l20.5-17
			V411.3z"/>
		<g>
			<path class="st3" d="M630.8,319c0.9-12.1-1.3-28.9-6.3-35.2c-16.7-21-8.5-35.3,2.9-50.2c2.4-3.1,2.9-19.9-10.1-21.6
				c-62.6-8.6-112.4-67.5-98.3-144.5C500.4,125,527,168.2,527,168.2c-12.1-13-26.2-36.6-30-60.8c-1.7,40.1,23.9,69.2,34.9,82.8
				c-13.8-10.3-22-16.6-38.3-50.2c5.2,25.7,25.1,51.6,37.2,62.6c-8.4-4.3-13.3-6.9-36-35.2c12.4,28,38.9,46.7,47.3,53.1
				c-7.8-1.4-22.5-11-37.5-23.1c14.1,18.5,35.2,27.4,47.3,33.7c-9.1,2-23.9-2.8-36.9-8.1c15.7,12.3,37.2,16.4,48.4,17.6
				c-12.9,3.1-32.8-1.3-44.7-4.3c14.1,8.1,36.9,11.5,54.2,10.4c-8.4,9.2-33,6.5-48.2,4c20.2,10,47.2,8.2,54.2,6.3
				c-6.9,6.3-26.7,11.1-45.6,12.4c20.5,6.1,43-0.2,46.4-1.7c-4.2,7.2-25.8,15.3-37.8,16.7c21,2.9,38.3-5.8,44.7-7.2
				c-2.8,8.1-22.1,15.9-34.3,18.2c16.4,1.8,34.9-5.1,39.2-7.5c-1.7,5.8-15.6,14.3-23.6,17.9c7.8-0.5,24.8-7.4,27.1-9.2
				c-0.2,3.2-5.4,9.5-13.8,17.9c6.1-1.4,17.5-9.7,20.8-12.7c0.6,4.6-0.6,8.8-6.9,15c5.1-1.2,11.1-7.1,13.7-9.1
				c1,1.6,1.6,6.3-0.5,9.7c2.5-1.3,4.6-3.9,5.8-5.2c3.2,6.3,8.9,40.9,10.4,54.8c1.4,13.5,2.9,258.3,7.5,310.2
				C632.5,645.4,630.3,326.6,630.8,319z"/>
			<path class="st3" d="M785.3,167.4c-23.3,28.3-28.3,30.9-36.9,35.2c12.4-11,32.8-36.9,38.1-62.6c-16.8,33.6-25.1,39.9-39.3,50.2
				c11.2-13.6,37.5-42.7,35.7-82.8c-3.9,24.2-18.3,47.9-30.7,60.8c0,0,27.2-43.2,8.2-100.6c14.5,77-36.6,135.8-100.6,144.5
				c-13.3,1.7-12.7,18.5-10.3,21.6c11.6,14.8,20.1,29.1,2.9,50.2c-5.1,6.3-7.4,23.1-6.5,35.2c0.6,7.6-1.8,326.4-1.2,358.1
				c4.7-51.9,6.2-296.7,7.7-310.2c1.5-13.8,7.4-48.4,10.6-54.8c1.2,1.3,3.4,3.9,5.9,5.2c-2.1-3.3-1.5-8.1-0.5-9.7
				c2.7,2,8.9,8,14,9.1c-6.5-6.2-7.7-10.4-7.1-15c3.4,3.1,15.1,11.2,21.3,12.7c-8.6-8.4-14-14.7-14.2-17.9
				c2.4,1.9,19.8,8.8,27.7,9.2c-8.2-3.6-22.4-12.1-24.2-17.9c4.4,2.5,23.4,9.3,40.1,7.5c-12.6-2.3-32.3-10.1-35.1-18.2
				c6.5,1.4,24.2,10.1,45.7,7.2c-12.2-1.4-34.4-9.5-38.6-16.7c3.5,1.6,26.6,7.8,47.5,1.7c-19.3-1.3-39.6-6.1-46.7-12.4
				c7.2,1.9,34.8,3.6,55.5-6.3c-15.5,2.5-40.7,5.2-49.3-4c17.7,1.2,41-2.3,55.5-10.4c-12.2,3.1-32.6,7.4-45.7,4.3
				c11.5-1.2,33.5-5.4,49.6-17.6c-13.3,5.4-28.5,10.1-37.8,8.1c12.4-6.3,34-15.3,48.4-33.7c-15.3,12.1-30.4,21.6-38.3,23.1
				C745.5,214.1,772.6,195.3,785.3,167.4z"/>
		</g>
	</g>
</g>
<g id="Layer_1_copy_2">
	<g id="M_triangulo_copy_2_">
		<path class="st2" d="M571.4,391.6l-30.6-25.1c0,0,0,82.6,0,106.9c0,2.9,4.6,6.7,4.6,6.7v-61.8l25.9-20.5l25.4,19.6v62.9
			c0,0,6.3-3.3,6.3-6.9c0-25.3,0-106.9,0-106.9L571.4,391.6z M546,410.7V379l21,15.9L546,410.7z M596.8,411.3l-20.5-16.7l20.5-17
			V411.3z"/>
		<path class="st2" d="M704.6,391.6L674,366.4c0,0,0,82.6,0,106.9c0,2.9,4.6,6.7,4.6,6.7v-61.8l25.9-20.5l25.4,19.6v62.9
			c0,0,6.3-3.3,6.3-6.9c0-25.3,0-106.9,0-106.9L704.6,391.6z M679.2,410.7V379l21,15.9L679.2,410.7z M730,411.3l-20.5-16.7l20.5-17
			V411.3z"/>
		<g>
			<path class="st2" d="M630.8,319c0.9-12.1-1.3-28.9-6.3-35.2c-16.7-21-8.5-35.3,2.9-50.2c2.4-3.1,2.9-19.9-10.1-21.6
				c-62.6-8.6-112.4-67.5-98.3-144.5C500.4,125,527,168.2,527,168.2c-12.1-13-26.2-36.6-30-60.8c-1.7,40.1,23.9,69.2,34.9,82.8
				c-13.8-10.3-22-16.6-38.3-50.2c5.2,25.7,25.1,51.6,37.2,62.6c-8.4-4.3-13.3-6.9-36-35.2c12.4,28,38.9,46.7,47.3,53.1
				c-7.8-1.4-22.5-11-37.5-23.1c14.1,18.5,35.2,27.4,47.3,33.7c-9.1,2-23.9-2.8-36.9-8.1c15.7,12.3,37.2,16.4,48.4,17.6
				c-12.9,3.1-32.8-1.3-44.7-4.3c14.1,8.1,36.9,11.5,54.2,10.4c-8.4,9.2-33,6.5-48.2,4c20.2,10,47.2,8.2,54.2,6.3
				c-6.9,6.3-26.7,11.1-45.6,12.4c20.5,6.1,43-0.2,46.4-1.7c-4.2,7.2-25.8,15.3-37.8,16.7c21,2.9,38.3-5.8,44.7-7.2
				c-2.8,8.1-22.1,15.9-34.3,18.2c16.4,1.8,34.9-5.1,39.2-7.5c-1.7,5.8-15.6,14.3-23.6,17.9c7.8-0.5,24.8-7.4,27.1-9.2
				c-0.2,3.2-5.4,9.5-13.8,17.9c6.1-1.4,17.5-9.7,20.8-12.7c0.6,4.6-0.6,8.8-6.9,15c5.1-1.2,11.1-7.1,13.7-9.1
				c1,1.6,1.6,6.3-0.5,9.7c2.5-1.3,4.6-3.9,5.8-5.2c3.2,6.3,8.9,40.9,10.4,54.8c1.4,13.5,2.9,258.3,7.5,310.2
				C632.5,645.4,630.3,326.6,630.8,319z"/>
			<path class="st2" d="M785.3,167.4c-23.3,28.3-28.3,30.9-36.9,35.2c12.4-11,32.8-36.9,38.1-62.6c-16.8,33.6-25.1,39.9-39.3,50.2
				c11.2-13.6,37.5-42.7,35.7-82.8c-3.9,24.2-18.3,47.9-30.7,60.8c0,0,27.2-43.2,8.2-100.6c14.5,77-36.6,135.8-100.6,144.5
				c-13.3,1.7-12.7,18.5-10.3,21.6c11.6,14.8,20.1,29.1,2.9,50.2c-5.1,6.3-7.4,23.1-6.5,35.2c0.6,7.6-1.8,326.4-1.2,358.1
				c4.7-51.9,6.2-296.7,7.7-310.2c1.5-13.8,7.4-48.4,10.6-54.8c1.2,1.3,3.4,3.9,5.9,5.2c-2.1-3.3-1.5-8.1-0.5-9.7
				c2.7,2,8.9,8,14,9.1c-6.5-6.2-7.7-10.4-7.1-15c3.4,3.1,15.1,11.2,21.3,12.7c-8.6-8.4-14-14.7-14.2-17.9
				c2.4,1.9,19.8,8.8,27.7,9.2c-8.2-3.6-22.4-12.1-24.2-17.9c4.4,2.5,23.4,9.3,40.1,7.5c-12.6-2.3-32.3-10.1-35.1-18.2
				c6.5,1.4,24.2,10.1,45.7,7.2c-12.2-1.4-34.4-9.5-38.6-16.7c3.5,1.6,26.6,7.8,47.5,1.7c-19.3-1.3-39.6-6.1-46.7-12.4
				c7.2,1.9,34.8,3.6,55.5-6.3c-15.5,2.5-40.7,5.2-49.3-4c17.7,1.2,41-2.3,55.5-10.4c-12.2,3.1-32.6,7.4-45.7,4.3
				c11.5-1.2,33.5-5.4,49.6-17.6c-13.3,5.4-28.5,10.1-37.8,8.1c12.4-6.3,34-15.3,48.4-33.7c-15.3,12.1-30.4,21.6-38.3,23.1
				C745.5,214.1,772.6,195.3,785.3,167.4z"/>
		</g>
	</g>
</g>
</svg>
